Coordinates
version=1
nRows=11
nColumns=40
inDegrees=yes

Units are S.I. units (second, meters, Newtons, ...)
Angles are in degrees.

endheader
time	pelvis_tilt	pelvis_list	pelvis_rotation	pelvis_tx	pelvis_ty	pelvis_tz	hip_flexion_r	hip_adduction_r	hip_rotation_r	knee_angle_r	knee_angle_r_beta	ankle_angle_r	subtalar_angle_r	mtp_angle_r	hip_flexion_l	hip_adduction_l	hip_rotation_l	knee_angle_l	knee_angle_l_beta	ankle_angle_l	subtalar_angle_l	mtp_angle_l	lumbar_extension	lumbar_bending	lumbar_rotation	arm_flex_r	arm_add_r	arm_rot_r	elbow_flex_r	pro_sup_r	wrist_flex_r	wrist_dev_r	arm_flex_l	arm_add_l	arm_rot_l	elbow_flex_l	pro_sup_l	wrist_flex_l	wrist_dev_l
      0.90000000	     -1.36808277	      0.60794587	     11.13416587	      0.42469120	      0.88563128	      1.45880315	     30.31995667	     -9.37473096	    -14.94395785	    -20.49995098	     -0.35779164	      5.12807568	     -3.14742695	     15.29489966	     -2.62863637	      2.16525797	      7.74533724	    -26.87693404	     -0.46909099	     11.66769884	      3.98233483	     -7.82358749	     -6.95687891	     -3.53807326	    -11.26513779	    -12.90511633	     -8.32101817	    -21.50652520	     20.16934348	     89.95437384	      0.00000000	      0.00000000	      0.25912184	     14.62300909	     19.55397587	     70.59678886	     89.95437384	      0.00000000	      0.00000000
      0.91000000	     -1.69723311	      0.73254728	     11.14721768	      0.43791777	      0.88421843	      1.45904072	     30.94140646	     -9.55727088	    -15.44220333	    -19.46083641	     -0.33965567	      5.30402550	     -2.91052305	     15.08887196	     -3.06546063	      2.20864576	      7.68200813	    -27.15215158	     -0.47389444	     11.39724784	      3.99258740	     -7.77074072	     -6.50671416	     -3.70417712	    -11.15642437	    -13.41864679	     -8.37398676	    -21.63313722	     19.95611805	     89.95437384	      0.00000000	      0.00000000	      0.35026834	     14.81991138	     19.55099252	     71.68542499	     89.95437384	      0.00000000	      0.00000000
      0.92000000	     -1.96952599	      0.77079481	     11.27481573	      0.45130140	      0.88283143	      1.45917084	     31.37150354	     -9.61395049	    -15.78760823	    -18.75561126	     -0.32734717	      5.35359250	     -2.59338970	     14.84946496	     -3.47401233	      2.37110250	      7.41166299	    -27.51547288	     -0.48023560	     11.00009637	      3.96727630	     -7.69907010	     -6.11717405	     -3.74461161	    -11.14409421	    -13.89547371	     -8.42763022	    -21.80557886	     19.74261934	     89.95437384	      0.00000000	      0.00000000	      0.37467413	     14.99218627	     19.54824888	     72.75269200	     89.95437384	      0.00000000	      0.00000000
      0.93000000	     -1.83186052	      0.44788516	     12.06498543	      0.46515658	      0.88215492	      1.45873126	     30.90193072	     -9.54842809	    -16.94133411	    -17.98510247	     -0.31389925	      5.39110177	     -1.18672745	     14.17951090	     -4.01796050	      3.12245212	      6.52865010	    -28.16706455	     -0.49160802	     10.20462717	      3.98645771	     -7.86311362	     -6.06199597	     -3.29077705	    -12.04746939	    -13.85011425	     -8.41657446	    -22.85959321	     19.04109382	     89.95437384	      0.00000000	      0.00000000	      0.09081195	     15.18786261	     19.91985472	     73.78812600	     89.95437384	      0.00000000	      0.00000000
      0.94000000	     -1.80328165	      0.49488588	     12.46435234	      0.47939778	      0.88112583	      1.45841721	     30.79441238	     -9.65299825	    -17.17357874	    -18.17519394	     -0.31721698	      5.56597984	     -1.12611091	     13.69574897	     -4.68786072	      3.36694045	      5.90991300	    -28.58073623	     -0.49882795	      9.44049483	      4.01512737	     -7.83972995	     -5.90754373	     -3.25459151	    -12.34216266	    -14.25777950	     -8.45396969	    -23.24987747	     18.87614502	     89.95437384	      0.00000000	      0.00000000	     -0.06305214	     15.35429748	     19.93228621	     74.66131223	     89.95437384	      0.00000000	      0.00000000
      0.95000000	     -1.65439355	      0.47853541	     12.83154131	      0.49395795	      0.88021721	      1.45832572	     30.49293861	     -9.57511896	    -17.21784811	    -18.69844248	     -0.32634939	      5.52890335	     -1.51327614	     13.23786057	     -5.45570236	      3.64746321	      4.94747174	    -29.05117734	     -0.50703870	      8.66294968	      4.36490206	     -7.86034516	     -5.85165056	     -3.13495696	    -12.59184310	    -14.56095971	     -8.47426631	    -23.81935888	     18.64588608	     89.95437384	      0.00000000	      0.00000000	     -0.27925800	     15.49297471	     20.02398836	     75.47237120	     89.95437384	      0.00000000	      0.00000000
      0.96000000	     -1.62205052	      0.44416852	     12.94137249	      0.50872031	      0.87895174	      1.45851091	     30.40495355	     -9.35312741	    -16.91507440	    -19.72803094	     -0.34431909	      5.31249742	     -1.86897376	     12.87543250	     -6.00192185	      3.91334150	      4.28898685	    -29.76190935	     -0.51944331	      7.86422646	      4.45673740	     -7.65326741	     -5.61818426	     -3.01304708	    -12.55355650	    -15.04490262	     -8.57698815	    -23.94315041	     18.73527677	     89.95437384	      0.00000000	      0.00000000	     -0.55687491	     15.64531136	     19.96691971	     76.16036969	     89.95437384	      0.00000000	      0.00000000
      0.97000000	     -1.45662167	      0.35354668	     13.20986498	      0.52367489	      0.87784570	      1.45864411	     30.08500216	     -9.08985188	    -16.65687508	    -20.97005065	     -0.36599643	      5.08780425	     -2.58063221	     12.54991611	     -6.56806729	      4.29509830	      3.48521326	    -30.59150032	     -0.53392240	      6.81193305	      4.79856600	     -7.41528191	     -5.52724866	     -2.79630083	    -12.69379838	    -15.39271534	     -8.63604046	    -24.28288847	     18.72401902	     89.95437384	      0.00000000	      0.00000000	     -0.96158357	     15.80487766	     19.97793078	     76.85037450	     89.95437384	      0.00000000	      0.00000000
      0.98000000	     -1.18808836	      0.30832816	     13.56709574	      0.53889614	      0.87717851	      1.45838239	     29.24621991	     -8.56867744	    -15.63637212	    -21.54769707	     -0.37607826	      3.94140228	     -5.73416142	     12.46468273	     -7.27420660	      4.40153074	      2.02609737	    -31.29646850	     -0.54622642	      5.53564092	      7.08884402	     -7.66040483	     -5.51971127	     -2.54489624	    -12.92520213	    -15.39776551	     -8.58640778	    -26.07419743	     18.30034625	     89.95437384	      0.00000000	      0.00000000	     -1.37000072	     15.84818449	     20.02983191	     77.30577162	     89.95437384	      0.00000000	      0.00000000
      0.99000000	     -1.09812711	      0.22701285	     13.53366870	      0.55391969	      0.87594257	      1.45872182	     29.12903861	     -8.24668473	    -15.10604935	    -22.80571358	     -0.39803479	      2.65147097	     -5.52380945	     12.17894547	     -7.59781520	      4.62289166	      1.31668982	    -32.42672952	     -0.56595320	      4.47358674	      7.09849241	     -7.36561869	     -5.33050767	     -2.30415693	    -12.67624888	    -15.82264545	     -8.71330403	    -26.11181723	     18.54305954	     89.95437384	      0.00000000	      0.00000000	     -1.76491670	     15.92382591	     19.91921455	     77.70793742	     89.95437384	      0.00000000	      0.00000000
      1.00000000	     -0.99695111	     -0.26817340	     13.70374904	      0.56856715	      0.87518491	      1.45936030	     29.15046643	     -7.63245227	    -15.02306424	    -24.24210222	     -0.42310450	      1.32681448	     -6.60866303	     11.96058267	     -7.47404039	      5.31998840	      0.63234064	    -33.94296229	     -0.59241645	      2.50571110	      8.76545387	     -6.97785135	     -5.08926148	     -1.62907921	    -12.64773188	    -15.71893883	     -8.74766535	    -27.13817361	     18.18142253	     89.95437384	      0.00000000	      0.00000000	     -2.17191261	     15.93908361	     19.90183419	     77.90366459	     89.95437384	      0.00000000	      0.00000000
